HIERARCHY
ROOT hip
{
  OFFSET 0 0 0
  CHANNELS 6 Xposition Yposition Zposition Zrotation Yrotation Xrotation
  JOINT abdomen
  {
    OFFSET 0 20.6881 -0.73152
    CHANNELS 3 Zrotation Xrotation Yrotation
    JOINT chest
    {
      OFFSET 0 11.7043 -0.48768
      CHANNELS 3 Zrotation Xrotation Yrotation
      JOINT neck
      {
        OFFSET 0 22.1894 -2.19456
        CHANNELS 3 Zrotation Xrotation Yrotation
        JOINT head
        {
          OFFSET -0.24384 7.07133 1.2192
          CHANNELS 3 Zrotation Xrotation Yrotation
          JOINT leftEye
          {
            OFFSET 4.14528 8.04674 8.04672
            CHANNELS 3 Zrotation Xrotation Yrotation
            End Site
            {
              OFFSET 1 0 0
            }
          }
          JOINT rightEye
          {
            OFFSET -3.6576 8.04674 8.04672
            CHANNELS 3 Zrotation Xrotation Yrotation
            End Site
            {
              OFFSET 1 0 0
            }
          }
        }
      }
      JOINT rCollar
      {
        OFFSET -2.68224 19.2634 -4.8768
        CHANNELS 3 Zrotation Xrotation Yrotation
        JOINT rShldr
        {
          OFFSET -8.77824 -1.95073 1.46304
          CHANNELS 3 Zrotation Xrotation Yrotation
          JOINT rForeArm
          {
            OFFSET -28.1742 -1.7115 0.48768
            CHANNELS 3 Zrotation Xrotation Yrotation
            JOINT rHand
            {
              OFFSET -22.5879 0.773209 7.07136
              CHANNELS 3 Zrotation Xrotation Yrotation
              JOINT rThumb1
              {
                OFFSET -1.2192 -0.487915 3.41376
                CHANNELS 3 Zrotation Xrotation Yrotation
                JOINT rThumb2
                {
                  OFFSET -3.37035 -0.52449 3.41376
                  CHANNELS 3 Zrotation Xrotation Yrotation
                  End Site
                  {
                    OFFSET -1.78271 -1.18214 1.43049
                  }
                }
              }
              JOINT rIndex1
              {
                OFFSET -7.75947 0.938293 5.60832
                CHANNELS 3 Zrotation Xrotation Yrotation
                JOINT rIndex2
                {
                  OFFSET -2.54057 -0.884171 1.56538
                  CHANNELS 3 Zrotation Xrotation Yrotation
                  End Site
                  {
                    OFFSET -1.62519 -0.234802 1.16502
                  }
                }
              }
              JOINT rMid1
              {
                OFFSET -8.24714 1.18213 3.41376
                CHANNELS 3 Zrotation Xrotation Yrotation
                JOINT rMid2
                {
                  OFFSET -3.10165 -0.590103 1.0647
                  CHANNELS 3 Zrotation Xrotation Yrotation
                  End Site
                  {
                    OFFSET -2.48547 -0.328903 0.83742
                  }
                }
              }
              JOINT rRing1
              {
                OFFSET -8.82822 0.546677 1.51678
                CHANNELS 3 Zrotation Xrotation Yrotation
                JOINT rRing2
                {
                  OFFSET -2.60934 -0.819778 -0.0198488
                  CHANNELS 3 Zrotation Xrotation Yrotation
                  End Site
                  {
                    OFFSET -2.33842 -0.294052 0.168128
                  }
                }
              }
              JOINT rPinky1
              {
                OFFSET -8.27202 -0.0477905 -0.4584
                CHANNELS 3 Zrotation Xrotation Yrotation
                JOINT rPinky2
                {
                  OFFSET -1.82734 -0.647385 -0.700984
                  CHANNELS 3 Zrotation Xrotation Yrotation
                  End Site
                  {
                    OFFSET -1.69225 -0.51767 -0.607171
                  }
                }
              }
            }
          }
        }
      }
      JOINT lCollar
      {
        OFFSET 2.68224 19.2634 -4.8768
        CHANNELS 3 Zrotation Xrotation Yrotation
        JOINT lShldr
        {
          OFFSET 8.77824 -1.95073 1.46304
          CHANNELS 3 Zrotation Xrotation Yrotation
          JOINT lForeArm
          {
            OFFSET 28.1742 -1.7115 0.48768
            CHANNELS 3 Zrotation Xrotation Yrotation
            JOINT lHand
            {
              OFFSET 22.5879 0.773209 7.07136
              CHANNELS 3 Zrotation Xrotation Yrotation
              JOINT lThumb1
              {
                OFFSET 1.2192 -0.487915 3.41376
                CHANNELS 3 Zrotation Xrotation Yrotation
                JOINT lThumb2
                {
                  OFFSET 3.37035 -0.52449 3.41376
                  CHANNELS 3 Zrotation Xrotation Yrotation
                  End Site
                  {
                    OFFSET 1.78271 -1.18214 1.43049
                  }
                }
              }
              JOINT lIndex1
              {
                OFFSET 7.75947 0.938293 5.60832
                CHANNELS 3 Zrotation Xrotation Yrotation
                JOINT lIndex2
                {
                  OFFSET 2.54057 -0.884171 1.56538
                  CHANNELS 3 Zrotation Xrotation Yrotation
                  End Site
                  {
                    OFFSET 1.62519 -0.234802 1.16502
                  }
                }
              }
              JOINT lMid1
              {
                OFFSET 8.24714 1.18213 3.41376
                CHANNELS 3 Zrotation Xrotation Yrotation
                JOINT lMid2
                {
                  OFFSET 3.10165 -0.590103 1.0647
                  CHANNELS 3 Zrotation Xrotation Yrotation
                  End Site
                  {
                    OFFSET 2.48547 -0.328903 0.83742
                  }
                }
              }
              JOINT lRing1
              {
                OFFSET 8.82822 0.546677 1.51678
                CHANNELS 3 Zrotation Xrotation Yrotation
                JOINT lRing2
                {
                  OFFSET 2.60934 -0.819778 -0.0198488
                  CHANNELS 3 Zrotation Xrotation Yrotation
                  End Site
                  {
                    OFFSET 2.33842 -0.294052 0.168128
                  }
                }
              }
              JOINT lPinky1
              {
                OFFSET 8.27202 -0.0477905 -0.4584
                CHANNELS 3 Zrotation Xrotation Yrotation
                JOINT lPinky2
                {
                  OFFSET 1.82734 -0.647385 -0.700984
                  CHANNELS 3 Zrotation Xrotation Yrotation
                  End Site
                  {
                    OFFSET 1.69225 -0.51767 -0.607171
                  }
                }
              }
            }
          }
        }
      }
    }
  }
  JOINT rButtock
  {
    OFFSET -8.77824 4.35084 1.2192
    CHANNELS 3 Zrotation Xrotation Yrotation
    JOINT rThigh
    {
      OFFSET 0 -1.70687 -2.19456
      CHANNELS 3 Zrotation Xrotation Yrotation
      JOINT rShin
      {
        OFFSET 0 -36.8199 0.73152
        CHANNELS 3 Zrotation Xrotation Yrotation
        JOINT rFoot
        {
          OFFSET 0.73152 -45.1104 -5.12064
          CHANNELS 3 Zrotation Xrotation Yrotation
          End Site
          {
            OFFSET -1.1221 -3.69964 12.103
          }
        }
      }
    }
  }
  JOINT lButtock
  {
    OFFSET 8.77824 4.35084 1.2192
    CHANNELS 3 Zrotation Xrotation Yrotation
    JOINT lThigh
    {
      OFFSET 0 -1.70687 -2.19456
      CHANNELS 3 Zrotation Xrotation Yrotation
      JOINT lShin
      {
        OFFSET 0 -36.8199 0.73152
        CHANNELS 3 Zrotation Xrotation Yrotation
        JOINT lFoot
        {
          OFFSET -0.73152 -45.1104 -5.12064
          CHANNELS 3 Zrotation Xrotation Yrotation
          End Site
          {
            OFFSET 1.1221 -3.69964 12.103
          }
        }
      }
    }
  }
}
MOTION
Frames: 4
Frame Time:	0.06666666
31.4449 76.8209 -248.459 -1.2136 -1.9696 5.0158 -0.258697 -0.339892 1.80867 -0.910955 -0.565168 0.411201 -0.613362 1.65474 -0.327279 -0.126963 -0.454931 -0.532347 -0.0 0.0 0.0 -0.0 0.0 0.0 -1.73021e-15 -1.80647e-14 1.16048e-15 21.3129 3.8379 3.10781 -3.85887 -1.68692 6.09777 0.00501018 1.68552 0.236572 6.43238e-11 -4.02351e-10 -1.48937e-10 1.11027e-10 -6.9501e-10 -2.5948e-10 6.43278e-11 -4.0235e-10 -1.48945e-10 7.73091 5.47488 0.417314 6.43217e-11 -4.0235e-10 -1.48936e-10 2.90554 0.965183 0.102902 6.43235e-11 -4.0235e-10 -1.48933e-10 10.2786 0.731801 0.0259123 6.43147e-11 -4.02346e-10 -1.48926e-10 2.22167 -0.733487 -0.20892 -2.00802e-15 -1.80623e-14 7.85432e-16 -22.8527 7.74794 1.31381 2.81644 -1.08833 -4.585 -0.00333319 -1.28346 0.180216 -2.54265e-10 -6.2943e-11 -2.82701e-10 -4.39173e-10 -1.08501e-10 -4.89122e-10 -2.54266e-10 -6.29461e-11 -2.82693e-10 -7.73091 5.47488 -0.417314 -2.54264e-10 -6.29446e-11 -2.82704e-10 -2.90554 0.965183 -0.102902 -2.54264e-10 -6.29441e-11 -2.82704e-10 -10.2786 0.731801 -0.0259123 -2.54256e-10 -6.29404e-11 -2.82719e-10 -2.22167 -0.733487 0.20892 -2.03217e-16 0.0 -3.88251e-19 0.479786 -7.90333 0.722695 -0.00288051 8.24725 0.0709546 0.0598775 -0.487787 4.01141 2.03217e-16 0.0 3.88251e-19 -1.25363 -17.2408 2.75353 0.050304 24.5655 -0.400434 0.557747 -2.26152 0.470219
31.4333 76.9247 -247.124 -1.6441 -1.5719 5.2748 5.02938 -1.01627 5.58211 -1.11627 -1.72243 1.5082 -1.7832 4.96358 -0.985124 -0.406252 -1.36432 -1.59744 -0.0 0.0 0.0 -0.0 0.0 0.0 1.4494e-14 -5.39085e-14 2.8851e-15 62.6746 11.3769 9.49067 -10.5165 -4.83193 18.3529 -0.0268639 5.05621 0.712182 3.91181e-10 -1.2043e-09 -4.48522e-10 6.75415e-10 -2.08029e-09 -7.81418e-10 3.91184e-10 -1.2043e-09 -4.48533e-10 7.73091 5.47488 0.417314 3.91178e-10 -1.2043e-09 -4.48524e-10 2.90554 0.965183 0.102902 3.9118e-10 -1.2043e-09 -4.4852e-10 10.2786 0.731801 0.0259123 3.91176e-10 -1.20429e-09 -4.48514e-10 2.22167 -0.733487 -0.20892 1.42483e-14 -5.38988e-14 2.55508e-15 -69.7027 23.1927 4.24941 7.93166 -3.18146 -13.7742 0.0142684 -3.85023 0.541736 -5.64487e-10 -1.86073e-10 -8.49839e-10 -9.75083e-10 -3.20753e-10 -1.47034e-09 -5.64487e-10 -1.86078e-10 -8.49822e-10 -7.73091 5.47488 -0.417314 -5.64486e-10 -1.86077e-10 -8.49837e-10 -2.90554 0.965183 -0.102902 -5.64488e-10 -1.86076e-10 -8.49838e-10 -10.2786 0.731801 -0.0259123 -5.64479e-10 -1.86071e-10 -8.49848e-10 -2.22167 -0.733487 0.20892 -2.03217e-16 0.0 -3.88251e-19 5.38522 -19.8326 2.25813 -0.158878 28.8985 0.398586 2.88655 -9.26551 11.9332 2.03217e-16 0.0 3.88251e-19 4.033 -33.6478 8.79832 0.63983 52.5796 -1.12865 0.695269 -3.46533 1.45841
31.3918 77.1007 -245.614 -1.8755 -1.746 5.2907 7.46227 -1.22793 7.52467 -1.25821 -2.13631 2.06923 -2.26944 6.36606 -1.30039 -0.709976 -1.93068 -2.11252 -0.0 0.0 0.0 -0.0 0.0 0.0 3.07443e-14 -7.68901e-15 -4.55031e-15 80.1643 15.6008 13.7641 -13.3254 -6.22794 24.4253 -0.0312722 5.19863 0.732475 2.52921e-10 -8.05624e-10 -6.59329e-10 4.35509e-10 -1.39117e-09 -1.14488e-09 2.52928e-10 -8.05627e-10 -6.59343e-10 7.73091 5.47488 0.417314 2.52921e-10 -8.05623e-10 -6.59331e-10 2.90554 0.965183 0.102902 2.52925e-10 -8.05623e-10 -6.59328e-10 10.2786 0.731801 0.0259123 2.52919e-10 -8.05621e-10 -6.59323e-10 2.22167 -0.733487 -0.20892 3.05556e-14 -7.68024e-15 -4.79413e-15 -92.3535 30.3047 7.02385 10.0941 -4.09326 -18.08 0.0354236 -5.19882 0.73281 -7.28599e-10 -8.91099e-11 -4.9728e-10 -1.25889e-09 -1.53596e-10 -8.61482e-10 -7.286e-10 -8.91129e-11 -4.97261e-10 -7.73091 5.47488 -0.417314 -7.28598e-10 -8.91132e-11 -4.97277e-10 -2.90554 0.965183 -0.102902 -7.28603e-10 -8.91128e-11 -4.97278e-10 -10.2786 0.731801 -0.0259123 -7.28591e-10 -8.91088e-11 -4.97285e-10 -2.22167 -0.733487 0.20892 -2.03217e-16 0.0 -3.88251e-19 7.6663 -24.3762 2.65408 -0.324216 37.83 0.579542 5.19823 -13.2967 16.0385 2.03217e-16 0.0 3.88251e-19 8.01612 -41.3059 12.4905 1.32484 63.5278 -1.79824 0.739046 -4.61938 1.73957
31.3899 77.3174 -244.068 -2.2771 -1.9981 5.159 6.9725 -0.983716 7.63488 -1.37025 -1.80799 2.09301 -2.12904 5.86349 -1.2666 -1.01255 -2.15497 -2.07679 -0.0 0.0 0.0 -0.0 0.0 0.0 4.70207e-14 1.20594e-13 -2.11457e-14 75.0225 16.7631 15.6155 -13.2885 -6.32711 24.2113 -0.00139272 2.11287 0.296827 -3.50455e-10 7.93677e-10 -7.81359e-10 -6.0869e-10 1.37233e-09 -1.34987e-09 -3.5044e-10 7.93663e-10 -7.81374e-10 7.73091 5.47488 0.417314 -3.50449e-10 7.93665e-10 -7.81356e-10 2.90554 0.965183 0.102902 -3.50441e-10 7.93665e-10 -7.81356e-10 10.2786 0.731801 0.0259123 -3.50456e-10 7.93674e-10 -7.81352e-10 2.22167 -0.733487 -0.20892 4.69136e-14 1.20593e-13 -2.12622e-14 -89.352 29.183 8.90374 9.80366 -3.98854 -17.4672 0.0357987 -5.32955 0.751264 -7.46601e-10 2.27948e-10 7.74975e-10 -1.2906e-09 3.92969e-10 1.33747e-09 -7.46605e-10 2.27948e-10 7.74989e-10 -7.73091 5.47488 -0.417314 -7.46599e-10 2.27946e-10 7.74976e-10 -2.90554 0.965183 -0.102902 -7.46609e-10 2.27946e-10 7.74977e-10 -10.2786 0.731801 -0.0259123 -7.46594e-10 2.27948e-10 7.74968e-10 -2.22167 -0.733487 0.20892 -2.03217e-16 0.0 -3.88251e-19 6.86523 -21.5526 1.71543 -0.27837 35.0432 0.484393 5.13474 -13.0348 15.898 2.03217e-16 0.0 3.88251e-19 7.23595 -40.7558 11.5638 0.911839 57.4215 -1.32093 0.645413 -5.72525 1.31091
